<svg width="40" height="40" viewBox="0 0 40 40" fill="none" xmlns="http://www.w3.org/2000/svg">
<path d="M5.83764 34.0969C9.69084 37.7988 14.8839 39.915 20.3235 40L18.772 38.1268V30.9642C16.1099 30.4954 13.7008 29.1461 11.9598 27.1491C10.2189 25.152 9.25509 22.6321 9.23454 20.0237C9.23454 17.6309 10.0511 15.3956 11.4229 13.5616C12.8421 11.6693 14.8283 10.241 17.1144 9.46879V2.22754C12.4455 2.84177 8.15574 5.03759 5.01294 8.42194C2.79019 10.7998 1.23425 13.6855 0.492594 16.8054C-0.249063 19.9252 -0.151873 23.176 0.774954 26.2496C1.80136 29.2115 3.53555 31.8996 5.83764 34.0969Z" fill="white"/>
<path d="M34.2051 5.80874C30.7837 2.43998 26.0721 0.102322 20.8951 0H20.7481C20.3644 0 19.9806 0.0157425 19.5968 0.0314844V38.4966C22.3032 38.6133 25.0045 38.1756 27.5226 37.2123C30.0407 36.249 32.3183 34.7821 34.2051 32.9083C37.7245 29.4293 39.9211 24.6359 39.9211 19.3703C39.9302 14.303 37.8781 9.43414 34.2051 5.80874ZM30.1876 23.2192C29.6777 24.4413 28.9103 25.5482 27.9339 26.4699L27.5011 26.8792V11.8378L27.9339 12.2393C29.3847 13.6534 30.3719 15.4476 30.7727 17.3986C31.1734 19.3495 30.9699 21.371 30.1876 23.2113V23.2192Z" fill="white"/>
<path d="M0.725739 13.2703C0.736429 13.2914 0.747319 13.3124 0.758399 13.3333L0.823724 13.3097C1.67295 11.4758 2.79165 9.76779 4.1798 8.23299C7.38859 4.66641 11.8247 2.33558 16.6732 1.66863L17.1632 1.5978L18.1431 0C14.2475 0.431157 10.5541 1.9017 7.47849 4.24614C4.40283 6.59059 2.06703 9.71589 0.733904 13.2703" fill="white"/>
<path d="M10.2633 23.739C10.2402 23.7257 10.2155 23.7152 10.1898 23.7075L10.1571 23.7626C10.7776 25.4385 11.8404 26.9296 13.2408 28.0889C14.6412 29.2483 16.3308 30.0359 18.1432 30.3742V29.0125C16.4738 28.8488 14.875 28.279 13.4967 27.3566C12.1184 26.4342 11.0058 25.1894 10.2633 23.739Z" fill="white"/>
<path d="M16.1835 25.4868C17.0409 25.1169 17.9228 24.8886 18.8782 24.7863V24.1724H18.87C17.8656 24.2668 16.8531 24.5266 15.8487 24.9516C15.2024 23.8336 14.75 22.6212 14.5095 21.3625C15.8732 21.0949 17.3022 20.9296 18.87 20.8745V20.2448C17.3512 20.3078 15.8487 20.4809 14.4115 20.7721C14.3462 20.1976 14.3136 19.7096 14.3136 19.2294C14.3136 18.6234 14.3625 18.0646 14.4524 17.5293C15.9059 17.8206 17.392 17.9858 18.87 18.0252V17.427C17.3185 17.364 15.865 17.1987 14.5504 16.9311C14.7953 15.7584 15.2281 14.6092 15.8569 13.5073C16.7959 13.9244 17.8085 14.1842 18.87 14.2944V13.6883C17.9881 13.6017 17.0735 13.3656 16.1753 12.9878C16.9102 11.8623 17.8248 10.8863 18.87 10.0756V9.62694C18.6764 9.65089 18.4852 9.69039 18.2984 9.74499C17.2496 10.5933 16.3482 11.5977 15.6282 12.7202C15.1791 12.5077 14.7463 12.2479 14.3217 11.9331L13.8318 12.3345C14.2928 12.6778 14.7847 12.9807 15.3016 13.2397C14.6736 14.3609 14.2196 15.5648 13.9543 16.8131C13.0315 16.6163 12.0762 16.3408 11.1208 15.9945L10.884 16.5533C11.8475 16.9075 12.8437 17.1987 13.8481 17.4034C13.7583 17.9544 13.7093 18.5762 13.7093 19.2294C13.7093 19.7489 13.742 20.2999 13.8073 20.8902C12.8277 21.1137 11.8625 21.3923 10.9166 21.7245C10.9656 21.9213 11.0146 22.1181 11.08 22.3148C12.004 21.978 12.9507 21.7019 13.9134 21.4884C14.1829 22.8501 14.6483 24.1015 15.3016 25.2192C14.6483 25.5577 14.1257 25.8882 13.6766 26.2503L14.1666 26.6281C14.5749 26.329 15.0403 26.0457 15.6037 25.7387C16.148 26.579 16.795 27.3533 17.5308 28.0449C17.8819 28.1 18.2331 28.1393 18.5924 28.1472C17.6551 27.3822 16.843 26.4854 16.1835 25.4868Z" fill="white"/>
</svg>
